<?xml version="1.0" encoding="UTF-8"?>
<svg id="Layer_2" data-name="Layer 2" xmlns="http://www.w3.org/2000/svg" viewBox="0 0 153 138">
  <defs>
    <style>
      .cls-1 {
        fill: #f5f5f5;
      }
    </style>
  </defs>
  <g id="Layer_1-2" data-name="Layer 1">
    <path class="cls-1" d="M114.67,138c-2.17,0-3.99-.73-5.46-2.2-1.47-1.46-2.2-3.28-2.2-5.44v-60.72c0-2.16.73-3.98,2.2-5.44,1.47-1.46,3.29-2.2,5.46-2.2h30.67c2.17,0,3.99.73,5.46,2.2,1.47,1.46,2.2,3.28,2.2,5.44v60.72c0,2.16-.73,3.98-2.2,5.44-1.47,1.46-3.29,2.2-5.46,2.2h-30.67ZM115,123h31v-46h-31v46ZM46,138v-15h15v-15H15.33c-4.22,0-7.83-1.51-10.83-4.53s-4.5-6.65-4.5-10.9V15.43c0-4.24,1.5-7.87,4.5-10.9S11.12,0,15.33,0h107.33c4.22,0,7.83,1.51,10.83,4.53s4.5,6.65,4.5,10.9v30.57h-15V15H15v77h77v16h-15v15h15v15h-46ZM51.37,82.03l17.63-13.42,17.63,13.42-6.52-21.85,17.63-14.18h-21.85l-6.9-21.47-6.9,21.47h-21.85l17.63,14.18-6.52,21.85Z"/>
  </g>
</svg>