<?xml version="1.0" encoding="UTF-8"?>
<svg id="Layer_2" data-name="Layer 2" xmlns="http://www.w3.org/2000/svg" viewBox="0 0 173.88 178.25">
  <defs>
    <style>
      .cls-1 {
        fill: #f5f5f5;
      }
    </style>
  </defs>
  <g id="Layer_1-2" data-name="Layer 1">
    <path class="cls-1" d="M23.73,178.25c-8.06,0-14.03-1.67-17.91-5s-5.82-8.33-5.82-15c0-8.79,3.66-14.39,10.97-16.82,7.31-2.42,15.97-3.64,25.97-3.64h4.7v-12.73c0-5.15-.07-9.36-.22-12.61s-.6-5.95-1.34-8.07c-.75-2.12-1.6-3.6-2.57-4.43s-2.28-1.25-3.92-1.25c-1.34,0-2.57.23-3.69.68s-2.05,1.06-2.8,1.82c-.6.76-.97,1.55-1.12,2.39s-.07,1.7.22,2.61c.9,1.67,1.94,3.3,3.13,4.89s1.79,3.45,1.79,5.57c0,3.79-1.31,7.01-3.92,9.66-2.61,2.65-5.78,3.98-9.51,3.98s-6.9-1.33-9.51-3.98c-2.61-2.65-3.92-5.87-3.92-9.66,0-4.09.9-7.42,2.69-10s4.22-4.62,7.28-6.14,6.6-2.58,10.63-3.18,8.36-.91,12.99-.91c12.69,0,21.49,2.31,26.42,6.93s7.39,12.77,7.39,24.43v33.41c0,2.88.34,5,1.01,6.36s1.83,2.05,3.47,2.05c1.79,0,3.25-1.36,4.37-4.09s1.83-6.97,2.13-12.73h2.46c-.45,9.39-2.2,15.98-5.26,19.77s-8.17,5.68-15.34,5.68c-6.42,0-11.46-1.02-15.11-3.07s-6.01-5.11-7.05-9.2c-1.49,4.39-3.69,7.54-6.6,9.43s-6.9,2.84-11.98,2.84ZM107.15,177.42c-2.96,0-5.36-1.22-7.2-3.66-1.85-2.44-2.18-5.06-1-7.87l22.61-59.63c1.03-2.51,2.66-4.58,4.88-6.21s4.73-2.44,7.54-2.44,5.32.81,7.54,2.44,3.84,3.69,4.88,6.21l22.61,59.63c1.18,2.81.85,5.43-1,7.87s-4.25,3.66-7.2,3.66c-1.77,0-3.4-.52-4.88-1.55s-2.59-2.44-3.32-4.21l-4.43-12.86h-28.37l-4.43,12.86c-.59,1.63-1.63,2.99-3.1,4.1s-3.18,1.66-5.1,1.66ZM35.82,170.92c1.91,0,3.52-1.5,4.84-4.51,1.32-3.01,1.98-6.64,1.98-10.89v-14.74c-3.81,0-6.6,1.14-8.36,3.41s-2.64,5.98-2.64,11.11v2.42c0,5.28.29,8.8.88,10.56s1.69,2.64,3.3,2.64ZM125.55,143.8h17.07l-8.65-25.27-8.42,25.27ZM117.35,80.15c-7.09,0-12.75-2.48-16.96-7.43s-6.32-11.64-6.32-20.06c0-15.37,4.88-27.97,14.63-37.79S130.95.13,146.17.13c6.21,0,11.23.7,15.07,2.11s5.76,3.21,5.76,5.43c0,.89-.15,1.77-.44,2.66s-.81,1.7-1.55,2.44c-.74,1.03-1.66,1.77-2.77,2.22s-2.25.52-3.44.22c-2.07-.59-4.43-1.11-7.09-1.55s-5.1-.66-7.31-.66c-10.49,0-18.92,3.55-25.27,10.64s-9.53,16.48-9.53,28.15c0,3.25.59,6.65,1.77,10.2s3.84,5.32,7.98,5.32c1.63,0,3.21-.37,4.77-1.11s2.92-1.77,4.1-3.1c2.51-2.66,4.84-7.09,6.98-13.3,2.14-6.21,4.1-13.74,5.87-22.61.3-1.92,1.07-3.29,2.33-4.1s2.99-1.22,5.21-1.22c2.66,0,4.69.7,6.1,2.11s1.81,3.14,1.22,5.21c-1.77,6.35-3.07,11.9-3.88,16.62s-1.22,9.01-1.22,12.86c0,2.96.41,5.1,1.22,6.43s2.03,1.99,3.66,1.99,3.21-.59,4.77-1.77,3.73-3.4,6.54-6.65c.3-.44,1.4-.96,3.33-1.55,1.18,0,2.07.44,2.66,1.33s.89,2.14.89,3.77c0,4.14-2.36,8.13-7.09,11.97s-9.68,5.76-14.85,5.76c-3.84,0-7.13-1.03-9.86-3.1s-4.62-5.02-5.65-8.87c-2.22,3.84-4.95,6.83-8.2,8.98s-6.87,3.21-10.86,3.21ZM9.64,79.8V31.34c0-7.73,2.69-15.3,7.9-21.01C24.66,2.52,33.61-.86,44.4.19c5.56.54,10.87,2.71,15.2,6.23,8.03,6.54,12.04,14.74,12.04,24.61v48.77h-17v-18h-27v18H9.64ZM27.64,44.8h27v-13.3c0-3.69-1.31-6.83-3.94-9.42s-5.81-3.88-9.56-3.88-6.94,1.29-9.56,3.88-3.94,5.73-3.94,9.42v13.3Z"/>
  </g>
</svg>