<?xml version="1.0" encoding="UTF-8"?>
<svg id="Layer_2" data-name="Layer 2" xmlns="http://www.w3.org/2000/svg" viewBox="0 0 80.37 80.37">
  <defs>
    <style>
      .cls-1 {
        fill: #160000;
      }

      .cls-2 {
        fill: #cb051f;
      }
    </style>
  </defs>
  <g id="Layer_1-2" data-name="Layer 1">
    <rect class="cls-1" width="80.37" height="80.37"/>
    <g>
      <path class="cls-2" d="M22.81,10.61c2.16,0,4.38.18,6.66.55,2.28.37,4.36,1.05,6.24,2.04,1.89.99,3.43,2.36,4.62,4.11,1.2,1.75,1.79,4,1.79,6.76,0,2.58-.62,4.66-1.86,6.24s-2.83,2.83-4.76,3.73c-1.93.9-4.06,1.5-6.38,1.79-2.32.3-4.57.45-6.73.45h-4.97v.41c0,1.66-.01,3.32-.04,5-.02,1.68-.03,3.35-.03,5-.05,1.7-.07,3.39-.07,5.07v5.49h3.24v1.04H5.77v-1.04h2.69V11.85h-2.69v-1.24h17.04ZM20.74,35.31c2.21-.05,4.13-.42,5.76-1.14,1.63-.71,3-1.62,4.11-2.73,1.1-1.1,1.92-2.36,2.45-3.76.53-1.4.79-2.84.79-4.31s-.25-2.83-.76-4.21c-.51-1.38-1.28-2.6-2.31-3.66-1.04-1.06-2.35-1.93-3.93-2.62s-3.44-1.06-5.55-1.1h-3.79v.34c0,1.93-.01,3.85-.03,5.76-.02,1.91-.03,3.83-.03,5.76v11.66h3.31Z"/>
      <path class="cls-2" d="M50.81,58.36c0,1.88-.16,3.81-.48,5.79-.32,1.98-.91,3.79-1.77,5.43-.86,1.64-2.05,2.98-3.57,4.02-1.52,1.04-3.48,1.56-5.88,1.56-2.24,0-4.05-.54-5.43-1.62s-2.46-2.46-3.24-4.14c-.78-1.68-1.3-3.53-1.56-5.55-.26-2.02-.39-3.97-.39-5.85v-4.32h-.36c-1.44,0-2.89-.01-4.35-.03-1.46-.02-2.91-.03-4.35-.03-1.48-.04-2.95-.06-4.41-.06h-4.77v2.82h-.9v-12.84h.9v2.34h39.48v-2.34h1.08v14.82ZM29.33,56.56c.04,1.92.37,3.59.99,5.01.62,1.42,1.41,2.61,2.37,3.57s2.05,1.67,3.27,2.13c1.22.46,2.47.69,3.75.69s2.46-.22,3.66-.66c1.2-.44,2.26-1.11,3.18-2.01.92-.9,1.68-2.04,2.28-3.42.6-1.38.92-2.99.96-4.83v-3.3h-.3c-1.68,0-3.35,0-5.01-.03-1.66-.02-3.33-.03-5.01-.03h-10.14v2.88Z"/>
    </g>
  </g>
</svg>