<?xml version="1.0" encoding="UTF-8"?>
<svg id="Layer_2" data-name="Layer 2" xmlns="http://www.w3.org/2000/svg" viewBox="0 0 152.15 118.21">
  <defs>
    <style>
      .cls-1 {
        fill: #f5f5f5;
      }
    </style>
  </defs>
  <g id="Layer_1-2" data-name="Layer 1">
    <path class="cls-1" d="M15.37,118.21c-4.18,0-7.76-1.43-10.74-4.31S.16,107.54.15,103.48L0,14.98c0-4.06,1.48-7.53,4.45-10.42S11,.21,15.18.21L136.77,0c4.18,0,7.76,1.43,10.74,4.31s4.48,6.35,4.48,10.41l.15,88.5c0,4.06-1.48,7.53-4.45,10.42s-6.55,4.34-10.73,4.35l-121.6.21ZM76.09,66.24L15.31,29.34l.13,74,121.42-.21-.13-74-60.65,37.11ZM75.91,51.96l60.86-37.11-121.84.21,60.98,36.9ZM15.31,29.52l-.03-14.8.15,88.81-.13-74Z"/>
  </g>
</svg>