<?xml version="1.0" encoding="UTF-8"?>
<svg id="Layer_2" data-name="Layer 2" xmlns="http://www.w3.org/2000/svg" viewBox="0 0 177.67 168">
  <defs>
    <style>
      .cls-1 {
        fill: #f5f5f5;
      }
    </style>
  </defs>
  <g id="Layer_1-2" data-name="Layer 1">
    <path class="cls-1" d="M9.67,168v-39.67L132.63,5.6c1.87-1.87,3.97-3.27,6.3-4.2s4.67-1.4,7-1.4c2.49,0,4.86.47,7.12,1.4s4.24,2.33,5.95,4.2l13.07,13.07c1.87,1.71,3.27,3.69,4.2,5.95s1.4,4.63,1.4,7.12c0,2.33-.47,4.67-1.4,7s-2.33,4.43-4.2,6.3l-122.73,122.97H9.67ZM27.67,149h13.07l91.7-91.47-6.53-6.77-6.77-6.53L27.67,135.93v13.07ZM158.67,31.97l-13.3-13.3,13.3,13.3ZM126.23,51.1l-6.77-6.53,13.3,13.3-6.53-6.77ZM102.67,168c11.51,0,22.17-2.88,31.97-8.63s14.7-13.77,14.7-24.03c0-5.6-1.48-10.42-4.43-14.47-2.96-4.04-6.92-7.54-11.9-10.5l-13.77,13.77c3.58,1.56,6.38,3.27,8.4,5.13s3.03,3.89,3.03,6.07c0,3.58-2.84,6.81-8.52,9.68-5.68,2.88-12.17,4.32-19.48,4.32-2.64,0-4.86.89-6.65,2.68s-2.68,4.01-2.68,6.65.89,4.86,2.68,6.65c1.79,1.79,4.01,2.68,6.65,2.68ZM14.7,96.6l14-14c-3.11-1.24-5.56-2.53-7.35-3.85s-2.68-2.68-2.68-4.08c0-1.87,1.4-3.73,4.2-5.6,2.8-1.87,8.71-4.74,17.73-8.63,13.69-5.91,22.79-11.28,27.3-16.1s6.77-10.27,6.77-16.33c0-8.56-3.42-15.36-10.27-20.42S48.53,0,37.33,0c-7,0-13.26,1.24-18.78,3.73s-9.76,5.52-12.72,9.1c-1.71,2.02-2.41,4.28-2.1,6.77s1.48,4.51,3.5,6.07c2.02,1.71,4.28,2.41,6.77,2.1s4.59-1.32,6.3-3.03c2.18-2.18,4.59-3.73,7.23-4.67s5.91-1.4,9.8-1.4c6.38,0,11.08.93,14.12,2.8s4.55,4.04,4.55,6.53c0,2.18-1.36,4.16-4.08,5.95s-8.98,4.94-18.78,9.45c-12.44,5.44-21.08,10.38-25.9,14.82-4.82,4.43-7.23,9.92-7.23,16.45,0,4.98,1.32,9.22,3.97,12.72,2.64,3.5,6.22,6.57,10.73,9.22Z"/>
  </g>
</svg>