<?xml version="1.0" encoding="UTF-8"?>
<svg id="Layer_2" data-name="Layer 2" xmlns="http://www.w3.org/2000/svg" viewBox="0 0 122.67 122.67">
  <defs>
    <style>
      .cls-1 {
        fill: #f5f5f5;
      }
    </style>
  </defs>
  <g id="Layer_1-2" data-name="Layer 1">
    <path class="cls-1" d="M115.51,122.67c-14.2,0-28.22-3.1-42.08-9.29-13.86-6.19-26.46-14.96-37.82-26.32S15.48,63.09,9.29,49.24C3.1,35.38,0,21.35,0,7.16c0-2.04.68-3.75,2.04-5.11S5.11,0,7.16,0h27.6c1.59,0,3.01.54,4.26,1.62s1.99,2.36,2.21,3.83l4.43,23.85c.23,1.82.17,3.35-.17,4.6s-.97,2.33-1.87,3.24l-16.53,16.7c2.27,4.2,4.97,8.26,8.09,12.18s6.56,7.7,10.31,11.33c3.52,3.52,7.21,6.79,11.07,9.8s7.95,5.76,12.27,8.26l16.01-16.01c1.02-1.02,2.36-1.79,4-2.3s3.27-.65,4.86-.43l23.51,4.77c1.59.45,2.9,1.28,3.92,2.47s1.53,2.53,1.53,4v27.6c0,2.04-.68,3.75-2.04,5.11s-3.07,2.04-5.11,2.04ZM20.28,41.26l11.24-11.24-2.9-16.01h-15.16c.57,4.66,1.36,9.26,2.39,13.8s2.5,9.03,4.43,13.46ZM81.24,101.88c4.43,1.93,8.94,3.46,13.54,4.6s9.23,1.87,13.89,2.21v-14.99l-16.01-3.24-11.41,11.41Z"/>
  </g>
</svg>