<?xml version="1.0" encoding="UTF-8"?>
<svg id="Layer_2" data-name="Layer 2" xmlns="http://www.w3.org/2000/svg" viewBox="0 0 75.06 33.41">
  <defs>
    <style>
      .cls-1 {
        fill: #160000;
      }
    </style>
  </defs>
  <g id="Layer_1-2" data-name="Layer 1">
    <g>
      <path class="cls-1" d="M3.95,31.42c1.6-8.25,4.86-16.1,9.64-23.02,1.2-1.74,2.47-3.5,3.92-5.04.57-.6,1.54-1.54,2.39-.9.62.47.79,1.49.93,2.2.96,4.82,1.46,9.78,1.86,14.68.2,2.46.34,4.92.44,7.38.06,1.69-.02,3.59.88,5.1,2.26,3.81,6.78-.19,8.98-1.96,1.66-1.33,3.22-2.79,4.66-4.36,1.32-1.44,2.47-3.33,4.15-4.39.78-.49,1.79-.79,2.69-.45s1.15,1.28,1.34,2.16c.35,1.6.66,3.28,2.21,4.19,1.63.95,3.59.41,5.19-.32,2.07-.94,3.95-2.22,6.04-3.13,4.63-2.03,9.66-3.07,14.7-3.17,1.45-.03,1.45-2.28,0-2.25-4.47.09-8.93.87-13.14,2.39-2.01.73-3.97,1.6-5.84,2.63-1.46.8-3.56,2.5-5.35,2.07s-1.5-3.24-2.13-4.59c-.71-1.54-2.23-2.41-3.92-2.37-1.93.04-3.54,1.14-4.82,2.51-1.48,1.58-2.79,3.3-4.35,4.81s-3.23,2.92-5.01,4.17c-.69.48-2,1.67-2.91,1.38-.8-.25-.96-1.43-1.03-2.15-.26-2.37-.19-4.81-.35-7.19-.17-2.54-.4-5.08-.68-7.61-.27-2.39-.58-4.77-.95-7.14-.28-1.85-.39-4.05-1.52-5.63C20.96,0,19.21-.38,17.66.4c-1.75.89-2.99,2.79-4.15,4.31C7.64,12.36,3.61,21.35,1.78,30.82c-.27,1.41,1.89,2.02,2.17.6h0Z"/>
      <path class="cls-1" d="M1.39,20.27c13.37-4.04,26.93-7.45,40.62-10.2,1.42-.29.82-2.45-.6-2.17C27.71,10.65,14.16,14.06.79,18.1c-1.38.42-.79,2.59.6,2.17h0Z"/>
    </g>
  </g>
</svg>